<svg xmlns="http://www.w3.org/2000/svg" viewBox="0 0 1338.91 267.37"><defs><style>.a{fill:#fff;}.b{fill:#e52629;}.c{fill:#231f20;}</style></defs><title>bsag-logo-desktop</title><path class="a" d="M-1118.37,504.43c12.11,0,22.29-2.11,22.29-17,0-14.74-10.18-16.68-21.94-16.68h-6.67v33.7Zm-.88-52.12c10.35,0,19.13-2.63,19.13-16.5,0-11.05-7.54-14.74-17.2-14.74h-7.37v31.24Zm1.93-49.66c17,0,40.89,2.45,40.89,30.71,0,17.55-11.23,23.16-17.9,26.5,8.25,2.28,21.94,8.77,21.94,28.95,0,29.31-20.88,34-43.52,34h-28.78c-3,0-3.69-.7-3.69-3.68V406.33c0-3.16.7-3.68,3.69-3.68h27.37" transform="translate(1569.31 -329.12)"/><path class="a" d="M-992.2,424.58c-.53,1.06-1.23,1.76-1.93,1.76-1,0-11.93-7.72-24.57-7.72-8.07,0-16.5,3.16-16.5,13.68,0,13.34,20.54,15.8,36,27.2,9,6.67,15.09,16,15.09,29.31,0,22.29-15.79,37-37.9,37-17.9,0-36.68-7.71-36.68-10.7a6.21,6.21,0,0,1,.88-2.63l4-11.58c.53-1.05,1.23-1.76,1.93-1.76,1.06,0,14,7.72,29.14,7.72,9.82,0,15.79-5.26,15.79-16.14,0-15.62-17.9-17.2-35.8-28.08-9.3-5.61-15.27-12.63-15.27-27.2,0-25.27,18.25-35.8,38.61-35.8,16.67,0,33.87,7.72,33.87,10.71a6.17,6.17,0,0,1-.88,2.63l-5.79,11.58" transform="translate(1569.31 -329.12)"/><path class="a" d="M-928.15,436c-1.58-5.44-3.16-11.76-4-16.67h-.36c-.7,4.21-2.46,11.93-3.68,16.67l-10.71,38.78h29.31Zm39.31,82.83c.35,1.23.7,2.11.88,3,0,.88-.71,1.05-2.46,1.05H-901.3c-2.11,0-2.81-.7-3.16-1.92l-9.83-33.87h-36l-9,33.87c-.35,1.22-1.06,1.92-3.16,1.92h-10.88c-1.76,0-2.46-.17-2.46-1.05a14.24,14.24,0,0,1,.88-3l35.1-114.24c.52-1.76.7-1.93,2.63-1.93h10.36c1.4,0,1.92,0,2.63,1.93l35.27,114.24" transform="translate(1569.31 -329.12)"/><path class="a" d="M-805.32,511.45c0,4.56,0,6-2.46,7.37-6.32,3.86-17.73,6.49-28.43,6.49-31.06,0-42.12-27.38-42.12-63.7,0-33.34,11.58-61.42,42.47-61.42,16.14,0,29.13,8.25,29.13,10.71,0,1-.35,1.22-.88,2.28l-2.63,4.91c-.7,1.05-.7,2.46-2.11,2.46-1.92,0-9.12-8.61-23.16-8.61-19.3,0-27,18.26-27,47.91,0,32.47,7.55,53.71,26.68,53.71,8.07,0,12.81-1.76,16.14-3.35V473.36h-14a1.86,1.86,0,0,1-2.11-2.1v-7.2a1.86,1.86,0,0,1,2.11-2.1h26.32a1.86,1.86,0,0,1,2.11,2.1v47.39" transform="translate(1569.31 -329.12)"/><path class="a" d="M-1253,462.8a133.68,133.68,0,0,0-133.68-133.68A133.68,133.68,0,0,0-1520.32,462.8a133.69,133.69,0,0,0,133.68,133.69A133.69,133.69,0,0,0-1253,462.8m-61.8,0a71.88,71.88,0,0,1-71.88,71.88,71.88,71.88,0,0,1-71.88-71.88,71.88,71.88,0,0,1,71.88-71.88,71.88,71.88,0,0,1,71.88,71.88" transform="translate(1569.31 -329.12)"/><path class="b" d="M-1259,462.8a127.6,127.6,0,0,0-127.6-127.6,127.6,127.6,0,0,0-127.6,127.6,127.6,127.6,0,0,0,127.6,127.6A127.6,127.6,0,0,0-1259,462.8m-49.39,0A78.22,78.22,0,0,1-1386.64,541a78.22,78.22,0,0,1-78.21-78.21,78.22,78.22,0,0,1,78.21-78.21,78.22,78.22,0,0,1,78.21,78.21" transform="translate(1569.31 -329.12)"/><path class="a" d="M-1204,460.54V405.31a2.38,2.38,0,0,0-2.43-2.43h-126.07a26.76,26.76,0,0,0-11.64,2.69l-.3.16-45.75,23.13-14.21,7.23-44.91,22.25-4.07,1.8-.66.32a25.14,25.14,0,0,1-9.9,2.15l-.28,0h-102.69a2.38,2.38,0,0,0-2.43,2.43v55.23a2.38,2.38,0,0,0,2.43,2.43h126.93A26.77,26.77,0,0,0-1428.3,520l.3-.16,103.19-52.16,4.88-2.25.66-.32a25.14,25.14,0,0,1,9.9-2.15h103a2.38,2.38,0,0,0,2.43-2.44" transform="translate(1569.31 -329.12)"/><path class="c" d="M-1326.58,462.4l4.88-2.26.66-.31a25.14,25.14,0,0,1,9.9-2.15l.27,0h99.16a2.38,2.38,0,0,0,2.43-2.43v-44.6a2.38,2.38,0,0,0-2.43-2.43h-119a26.63,26.63,0,0,0-11.65,2.69l-.3.15-45.75,23.14-14.21,7.23-44.91,22.24-4.07,1.81-.66.31a25,25,0,0,1-9.9,2.15l-.28,0h-99.15a2.38,2.38,0,0,0-2.43,2.43V515a2.38,2.38,0,0,0,2.43,2.43h119.85a26.63,26.63,0,0,0,11.65-2.69l.3-.15,103.19-52.16" transform="translate(1569.31 -329.12)"/><path class="a" d="M-746.25,523.16V475.83h16q7.75,0,11.63,3.4a10.78,10.78,0,0,1,3.87,8.43,10.67,10.67,0,0,1-3.19,8,11.25,11.25,0,0,1-4.35,2.45q9.38,2.85,9.38,11.9a12.93,12.93,0,0,1-3.06,8.77,12.65,12.65,0,0,1-9.32,4.28c-1.45.09-3.46.14-6.05.14Zm14.89-39.24h-5.51V494.8h5.65a9.16,9.16,0,0,0,4-.58,4.66,4.66,0,0,0,1.77-2,6.26,6.26,0,0,0,.75-2.89,4.8,4.8,0,0,0-2.72-4.76A9.86,9.86,0,0,0-731.36,483.92Zm.55,18.7h-5.92v12.79h6.19a7.52,7.52,0,0,0,4.42-1.09,6.35,6.35,0,0,0,2.45-5.51,6.78,6.78,0,0,0-1-3.64,4.93,4.93,0,0,0-2.48-2.14A12.44,12.44,0,0,0-730.81,502.62Z" transform="translate(1569.31 -329.12)"/><path class="a" d="M-706.13,499.9q0-6.79-1.29-10.2l8.16-2.17a11.86,11.86,0,0,1,1.43,5,13.69,13.69,0,0,1,5.16-4.42,7.13,7.13,0,0,1,3-.54,8.89,8.89,0,0,1,3.4.74l-2.52,8a5.68,5.68,0,0,0-2.65-.68,7.3,7.3,0,0,0-5.58,2.92v24.62h-9.11Z" transform="translate(1569.31 -329.12)"/><path class="a" d="M-668.58,517.38a13.43,13.43,0,0,0,8.78-3.47l3.51,5.44a20.25,20.25,0,0,1-13.12,4.83q-7.49,0-12-4.9t-4.49-13.12q0-9,4.29-13.74a14.15,14.15,0,0,1,11-4.76q6.47,0,10.07,3.67,4.62,4.77,4.62,15.24v2.1h-20V509Q-675.87,517.38-668.58,517.38Zm-7.29-15.51V502h10.54v-.41a9.85,9.85,0,0,0-1.09-5.23,4.41,4.41,0,0,0-4-2Q-675.87,494.33-675.87,501.87Z" transform="translate(1569.31 -329.12)"/><path class="a" d="M-649.15,498.88q0-6.58-1.29-8.91l8.23-2.24a11.19,11.19,0,0,1,1.22,3.54,11.88,11.88,0,0,1,8.5-3.54,9.42,9.42,0,0,1,7.07,2.86,13.29,13.29,0,0,1,1.37,1.7q4.49-4.56,9.86-4.56a9.87,9.87,0,0,1,7.2,2.52q2.25,2.17,2.25,8.16v24.75h-8.84v-23a12.91,12.91,0,0,0-.27-3.4,2.43,2.43,0,0,0-2.59-1.56c-1.86,0-3.87,1-6,2.92v25h-8.64V500.51a12.36,12.36,0,0,0-.34-3.67,2.62,2.62,0,0,0-2.78-1.7,9.13,9.13,0,0,0-6,2.65v25.37h-8.91Z" transform="translate(1569.31 -329.12)"/><path class="a" d="M-581.2,517.38a13.43,13.43,0,0,0,8.78-3.47l3.51,5.44A20.25,20.25,0,0,1-582,524.18q-7.49,0-12-4.9t-4.49-13.12q0-9,4.29-13.74a14.15,14.15,0,0,1,11-4.76q6.47,0,10.07,3.67,4.62,4.77,4.62,15.24v2.1h-20V509Q-588.49,517.38-581.2,517.38Zm-7.29-15.51V502h10.54v-.41a9.85,9.85,0,0,0-1.09-5.23,4.41,4.41,0,0,0-4-2Q-588.49,494.33-588.49,501.87Z" transform="translate(1569.31 -329.12)"/><path class="a" d="M-561.9,497.93a24.41,24.41,0,0,0-1.23-8.16l8.09-2.31a8.63,8.63,0,0,1,1.3,4.35q1.22-.88,4-2.58a13,13,0,0,1,6.25-1.5,10,10,0,0,1,5.24,1.39,7.09,7.09,0,0,1,3.13,3.64,14.81,14.81,0,0,1,.68,5v25.43h-9V500.51a10,10,0,0,0-.41-3.53,2.53,2.53,0,0,0-2.65-1.57c-1.9,0-4,1-6.32,3.13v24.62h-9.11Z" transform="translate(1569.31 -329.12)"/><path class="a" d="M-503.7,475l9.32-2.18A54.14,54.14,0,0,1-494,479v8.23a15.6,15.6,0,0,1-.2,3.06q2.58-2.79,7.41-2.79a12.14,12.14,0,0,1,10.1,4.76Q-473,497-473,505.14a23.18,23.18,0,0,1-3.33,12.58q-3.94,6.12-10.74,6.12a10,10,0,0,1-7.76-3.2,12.1,12.1,0,0,1-.95,2.52H-504q.89-2,.89-7.41V483.51A40.74,40.74,0,0,0-503.7,475Zm15,20.06c-1.76,0-3.49.93-5.16,2.78v16.05a7.64,7.64,0,0,0,5.1,2.25q3.93,0,5-4.49a34.35,34.35,0,0,0,.41-6.26,29.77,29.77,0,0,0-.41-5.91Q-484.79,495-488.74,495Z" transform="translate(1569.31 -329.12)"/><path class="a" d="M-450.57,517.38a13.43,13.43,0,0,0,8.78-3.47l3.51,5.44a20.26,20.26,0,0,1-13.13,4.83q-7.47,0-12-4.9t-4.49-13.12q0-9,4.28-13.74a14.17,14.17,0,0,1,11-4.76q6.46,0,10.06,3.67,4.62,4.77,4.63,15.24v2.1h-20V509Q-457.87,517.38-450.57,517.38Zm-7.3-15.51V502h10.54v-.41a10,10,0,0,0-1.08-5.23,4.41,4.41,0,0,0-4-2Q-457.86,494.33-457.87,501.87Z" transform="translate(1569.31 -329.12)"/><path class="a" d="M-425.7,523.16l-9.52-34.07,9-1,2.86,13.26q.81,3.74,2,10.81.41-3.06,2.52-12.1l3.26-11.56H-407l2.79,11.35c1,4,1.86,8.1,2.58,12.31q.94-6.87,1.91-11.35l2.65-12.31h9.38l-9.93,34.68H-406l-3.13-12c-.91-3.44-1.56-6.26-2-8.43-.09-.41-.27-1.57-.55-3.47-.09.68-.36,2.18-.81,4.49q-.35,1.5-3,12.24l-1.77,7.14Z" transform="translate(1569.31 -329.12)"/><path class="a" d="M-368,517.38a13.43,13.43,0,0,0,8.78-3.47l3.51,5.44a20.25,20.25,0,0,1-13.12,4.83q-7.48,0-12-4.9t-4.49-13.12q0-9,4.28-13.74a14.17,14.17,0,0,1,11-4.76q6.47,0,10.06,3.67,4.63,4.77,4.63,15.24v2.1h-20V509Q-375.31,517.38-368,517.38Zm-7.29-15.51V502h10.54v-.41a10,10,0,0,0-1.09-5.23,4.41,4.41,0,0,0-4-2Q-375.31,494.33-375.31,501.87Z" transform="translate(1569.31 -329.12)"/><path class="a" d="M-325.2,489.36a10.57,10.57,0,0,0,7.21-3l3.81,5.78a9.14,9.14,0,0,1-6.39,2.58,23.62,23.62,0,0,1-2.38-.2,8.65,8.65,0,0,1,2,5.71,9.12,9.12,0,0,1-3.64,7.41,14.26,14.26,0,0,1-9.22,2.93,12.52,12.52,0,0,1-1.36-.07q-3.6,1.74-3.6,2.91c0,.55.5.83,1.5.83h4.89q7.27.07,10.54,3.13a9.63,9.63,0,0,1,3,7.41,10.24,10.24,0,0,1-2.78,7.21q-4.23,4.49-13.74,4.49-9.18,0-13.19-3.74a8.19,8.19,0,0,1-2.86-6.19,7.74,7.74,0,0,1,.82-3.54h8.43a6.79,6.79,0,0,0-.41,2.25q0,4.28,6.53,4.28,4,0,5.78-1.16a4.16,4.16,0,0,0,2.18-3.53,3.25,3.25,0,0,0-1.64-3.13,11.2,11.2,0,0,0-4.76-1c-.5,0-1.79,0-3.87-.07a43.91,43.91,0,0,1-5.58-.34c-2.4-.41-4-1.22-4.76-2.45a6.29,6.29,0,0,1-.68-2.85,4.62,4.62,0,0,1,1.09-3.2,10.41,10.41,0,0,1,5.3-2.65q-7.47-1.9-7.48-9.66a10.37,10.37,0,0,1,4-8.56q4-3.19,10.67-3.2a26,26,0,0,1,6.26.88A19.43,19.43,0,0,0-325.2,489.36Zm-5.1,10.2c0-3.44-1.83-5.17-5.51-5.17s-5.44,1.73-5.44,5.17,1.79,5,5.38,5S-330.3,502.87-330.3,499.56Z" transform="translate(1569.31 -329.12)"/><path class="a" d="M-296.49,517.38a13.41,13.41,0,0,0,8.78-3.47l3.51,5.44a20.23,20.23,0,0,1-13.12,4.83q-7.49,0-12-4.9t-4.49-13.12q0-9,4.29-13.74a14.17,14.17,0,0,1,11-4.76q6.45,0,10.06,3.67,4.62,4.77,4.62,15.24v2.1h-20V509Q-303.78,517.38-296.49,517.38Zm-7.29-15.51V502h10.54v-.41a9.85,9.85,0,0,0-1.09-5.23,4.41,4.41,0,0,0-4-2Q-303.79,494.33-303.78,501.87Z" transform="translate(1569.31 -329.12)"/><path class="a" d="M-277.19,497.93a24.41,24.41,0,0,0-1.23-8.16l8.1-2.31a8.71,8.71,0,0,1,1.29,4.35c.82-.59,2.15-1.45,4-2.58a13,13,0,0,1,6.26-1.5,10,10,0,0,1,5.23,1.39,7,7,0,0,1,3.13,3.64,14.81,14.81,0,0,1,.68,5v25.43h-9V500.51a10.31,10.31,0,0,0-.4-3.53,2.55,2.55,0,0,0-2.65-1.57c-1.91,0-4,1-6.33,3.13v24.62h-9.11Z" transform="translate(1569.31 -329.12)"/><path class="a" d="M-242.38,518.19a5.69,5.69,0,0,1,1.74-4.18,5.71,5.71,0,0,1,4.18-1.73,5.9,5.9,0,0,1,4.28,1.73,5.65,5.65,0,0,1,1.77,4.18,5.84,5.84,0,0,1-1.77,4.29,5.74,5.74,0,0,1-4.21,1.77,5.71,5.71,0,0,1-4.25-1.77A5.89,5.89,0,0,1-242.38,518.19Z" transform="translate(1569.31 -329.12)"/></svg>